<svg width="512" height="512" viewBox="0 0 512 512" fill="none" xmlns="http://www.w3.org/2000/svg">
<path fill-rule="evenodd" clip-rule="evenodd" d="M312 473.421C312 474.728 313.237 475.682 314.499 475.343C409.841 449.673 480 362.773 480 259.521C480 136.074 379.712 36 256 36C132.288 36 32 136.074 32 259.521C32 362.773 102.159 449.673 197.501 475.343C198.763 475.682 200 474.728 200 473.421V424.569C181.564 431.733 156.501 430.701 139.332 417.853C128.449 409.708 123.783 399.231 119.504 389.626C115.224 380.018 111.333 371.282 101.997 366.624C84.7863 358.039 88 347.996 106.667 352.653C125.322 357.307 132.409 367.912 143.976 385.22L143.997 385.251C152.208 397.539 182.079 402.621 201.856 390.991C203.81 379.807 207.821 368.899 216.053 359.565C137.121 349.166 116 306.239 116 254.864C116 231.725 123.856 210.299 138.728 192.787C132.114 168.418 133.8 146.585 142.17 129.288C164.464 127.79 186.022 137.283 204.205 154.024C219.658 149.97 236.969 147.76 256 147.76C275.031 147.76 292.342 149.97 307.795 154.024C325.978 137.283 347.536 127.79 369.83 129.288C378.2 146.585 379.886 168.418 373.271 192.787C388.144 210.299 396 231.725 396 254.864C396 306.239 374.879 349.166 295.947 359.565C312 377.767 312 401.95 312 422.505V473.421Z" fill="black" id="id_103"></path>
</svg>