<?xml version="1.0" encoding="utf-8"?>
<!-- Generator: Adobe Illustrator 23.0.3, SVG Export Plug-In . SVG Version: 6.00 Build 0)  -->
<svg version="1.1" id="Capa_1" xmlns="http://www.w3.org/2000/svg" xmlns:xlink="http://www.w3.org/1999/xlink" x="0px" y="0px"
	 viewBox="0 0 512 512" style="enable-background:new 0 0 512 512;" xml:space="preserve">
<style type="text/css">
	.st0{fill:#E94C88;}
	.st1{fill:#F3F3F3;}
</style>
<circle class="st0" cx="256" cy="256" r="235.1"/>
<path class="st1" d="M256,99.77c-86.14,0-156.23,70.08-156.23,156.23S169.86,412.23,256,412.23S412.23,342.14,412.23,256
	S342.15,99.77,256,99.77z M295.13,252.1c-4.14-11-8.7-21.77-13.67-32.21c33.52-13.16,59.89-30.33,78.47-51.31
	c17.88,21.22,29.37,47.97,31.54,77.27C357.59,242.35,325.28,244.45,295.13,252.1z M345.61,153.97
	c-16.77,19.4-41.4,35.38-73.37,47.69c-18.28-33.78-38.16-58.78-54.47-76.04c12.14-3.57,24.96-5.51,38.23-5.51
	C290.31,120.11,321.67,132.92,345.61,153.97z M197.1,133.55c15.82,15.75,36.53,40.27,55.69,74.96
	c-47.66,14.91-97.82,19.42-130.01,20.66C131.27,186.97,159.35,151.78,197.1,133.55z M120.11,256c0-2.15,0.06-4.28,0.16-6.4
	c33.9-1.13,89.44-5.81,141.95-22.78c4.85,10.07,9.33,20.47,13.39,31.11c-60.87,21.04-99.3,61.43-119.92,89.63
	C133.6,323.39,120.11,291.24,120.11,256z M170.62,361.62c18.58-26.01,54.3-64.68,111.72-84.5c10.82,33.25,17.76,68.95,20.68,106.38
	c-14.66,5.43-30.5,8.4-47.03,8.4C223.68,391.89,193.97,380.53,170.62,361.62z M322.7,374.33c-3.34-36.09-10.35-70.6-20.84-102.97
	c27.95-6.86,58-8.53,89.6-5.03C387.96,312.67,361.13,352.58,322.7,374.33z"/>
</svg>
